<svg xmlns="http://www.w3.org/2000/svg" xml:space="preserve" width="2000" height="113" viewBox="0 0 2000 113" data-version="1" data-id="lg_uD22zwrMfaSiLmncMl"><g id="outer-wrapper" data-padding="20" transform="matrix(1,0,0,1,0,0)"><g id="inner-wrapper" transform="matrix(0.9642857142857143,0,0,0.9642857142857143,10,2.017857142857139)"><rect width="560" height="113" x="346.1666666666665" y="-377.03" fill="none" rx="0" ry="0" transform="translate(400.5 377.03)"></rect><path fill="#fff" d="M769.5966666666666 89.52000000000004Q766.3966666666666 89.52000000000004 763.7966666666666 88.32000000000005T759.7466666666667 84.17000000000007T758.2966666666666 76.0200000000001V44.12000000000012H751.2966666666666Q750.6966666666666 43.020000000000095 750.6466666666666 41.87000000000012T750.7966666666666 39.62000000000012Q754.9966666666667 39.62000000000012 757.0966666666666 38.520000000000095T760.3466666666666 34.720000000000084T762.7966666666666 27.420000000000073H768.0966666666666V38.62000000000006H778.5966666666666Q779.9966666666667 41.52000000000004 778.5966666666666 44.12000000000006H768.0966666666666V73.52000000000004Q768.0966666666666 78.12000000000006 768.5466666666666 80.47000000000003T770.0966666666666 83.67000000000002T773.0966666666666 84.52000000000004Q774.6966666666666 84.52000000000004 776.1966666666666 83.92000000000002T779.0966666666666 82.52000000000004Q780.4966666666667 83.42000000000002 780.5966666666666 85.52000000000004Q779.4966666666667 86.82000000000005 776.5966666666666 88.17000000000002T769.5966666666666 89.52000000000004M799.9966666666667 13.420000000000073V43.42000000000007H800.4966666666667Q804.9966666666667 39.32000000000005 809.2466666666667 37.62000000000006T816.8966666666666 35.92000000000007Q825.0966666666666 35.92000000000007 828.8466666666666 40.220000000000084T832.5966666666666 51.520000000000095V82.92000000000007L839.7966666666666 84.92000000000007Q840.0966666666666 86.82000000000005 839.2966666666666 88.42000000000007Q836.5966666666666 88.22000000000008 833.4966666666667 88.07000000000005T827.5966666666666 87.92000000000007T821.4966666666667 88.07000000000005T815.3966666666666 88.42000000000007Q815.0966666666666 86.5200000000001 815.5966666666666 84.92000000000007Q817.3966666666666 84.5200000000001 819.1966666666666 84.07000000000005T822.5966666666666 82.92000000000007V53.020000000000095Q822.5966666666666 48.82000000000011 821.2966666666666 46.62000000000012T817.7966666666666 43.67000000000013T812.8966666666665 42.92000000000013Q809.6966666666666 42.92000000000013 806.2466666666666 44.52000000000015T800.4966666666666 48.72000000000014V82.92000000000013L807.1966666666666 84.92000000000013Q807.4966666666666 86.8200000000001 806.6966666666666 88.42000000000013Q803.9966666666666 88.22000000000014 801.1466666666665 88.0700000000001T795.4966666666666 87.92000000000013T789.3966666666665 88.0700000000001T783.2966666666666 88.42000000000013Q782.9966666666666 86.52000000000015 783.4966666666666 84.92000000000013Q785.3966666666665 84.42000000000013 787.2466666666666 84.02000000000015T790.4966666666666 82.92000000000013V19.320000000000107L782.1966666666665 18.520000000000095Q781.8966666666665 16.520000000000095 782.6966666666665 15.020000000000095Q789.8966666666665 13.920000000000073 796.1966666666665 12.320000000000107Q797.1966666666665 12.42000000000013 798.0966666666666 12.67000000000013T799.9966666666666 13.42000000000013M844.9966666666666 62.92000000000013Q844.9966666666666 55.12000000000012 848.0466666666666 49.02000000000015T856.7966666666666 39.42000000000013T870.1966666666666 35.92000000000013Q877.9966666666666 35.92000000000013 883.6466666666665 39.42000000000013T892.3466666666666 49.02000000000015T895.3966666666665 62.92000000000013Q895.3966666666665 70.92000000000013 892.3466666666666 77.02000000000015T883.6466666666665 86.52000000000015T870.1966666666666 89.92000000000013Q862.4966666666667 89.92000000000013 856.7966666666666 86.52000000000015T848.0466666666666 77.02000000000015T844.9966666666666 62.92000000000013M884.5966666666666 64.3200000000001Q884.5966666666666 57.62000000000012 883.0966666666666 52.17000000000013T878.3966666666665 43.47000000000014T869.9966666666666 40.22000000000014Q864.6966666666666 40.22000000000014 861.5466666666666 43.42000000000013T857.0966666666666 51.92000000000013T855.7966666666666 63.62000000000012Q855.7966666666666 69.42000000000013 857.2966666666666 74.47000000000014T862.0466666666666 82.57000000000016T870.3966666666665 85.62000000000018Q875.7966666666666 85.62000000000018 878.8966666666665 82.62000000000018T883.2966666666666 74.7200000000002T884.5966666666666 64.32000000000022M949.2966666666666 38.02000000000021V83.12000000000023Q950.9966666666666 84.12000000000023 952.7966666666666 84.42000000000024T956.2966666666666 85.12000000000023Q956.5966666666666 86.92000000000024 955.7966666666666 88.62000000000023Q954.1966666666665 88.92000000000024 952.0466666666666 89.12000000000023T947.5966666666666 89.32000000000022Q944.3966666666665 89.32000000000022 941.9966666666666 88.7200000000002L940.2966666666666 81.32000000000022H939.7966666666666Q934.6966666666665 85.92000000000024 930.3466666666666 87.7200000000002T920.8966666666665 89.52000000000021Q913.6966666666666 89.52000000000021 910.5466666666666 85.52000000000021T907.3966666666665 74.52000000000021V43.920000000000186L900.0966666666666 43.120000000000175Q899.7966666666666 41.120000000000175 900.5966666666666 39.620000000000175Q904.1966666666666 39.120000000000175 907.3466666666666 38.420000000000186T913.5966666666666 36.920000000000186Q914.5966666666666 37.02000000000021 915.4966666666666 37.27000000000021T917.3966666666665 38.02000000000021V73.02000000000021Q917.3966666666665 77.2200000000002 918.6466666666665 79.2200000000002T921.9966666666666 81.87000000000018T926.7966666666666 82.52000000000015Q929.9966666666666 82.52000000000015 933.4966666666666 80.62000000000018T939.2966666666666 76.12000000000018V43.920000000000186L931.9966666666666 43.120000000000175Q931.6966666666665 41.120000000000175 932.4966666666666 39.620000000000175Q936.0966666666666 39.120000000000175 939.2466666666666 38.420000000000186T945.4966666666666 36.920000000000186Q946.4966666666666 37.02000000000021 947.3966666666665 37.27000000000021T949.2966666666665 38.02000000000021M983.5966666666666 71.2200000000002Q981.7966666666665 71.2200000000002 979.8966666666665 70.9700000000002T975.9966666666666 70.12000000000018Q974.9966666666666 71.62000000000018 974.5966666666666 72.52000000000015T974.1966666666666 74.02000000000015Q974.1966666666666 74.92000000000013 974.8966666666665 75.82000000000016T978.5966666666666 77.57000000000016T988.3966666666665 79.22000000000014Q995.0966666666666 80.02000000000015 999.5966666666666 81.32000000000016T1006.3966666666665 85.42000000000019T1008.6966666666666 93.42000000000019Q1008.6966666666666 97.92000000000019 1006.4966666666667 101.12000000000018T1000.5966666666666 106.42000000000019T992.4966666666667 109.52000000000021T983.5966666666666 110.52000000000021Q975.9966666666667 110.52000000000021 971.2466666666667 108.7200000000002T964.2466666666667 103.87000000000018T961.9966666666667 97.32000000000016Q961.9966666666667 93.72000000000014 963.9966666666667 90.17000000000019T971.3966666666665 84.42000000000019Q968.0966666666666 81.52000000000021 968.0966666666666 77.82000000000016Q968.0966666666666 74.52000000000015 969.3466666666666 72.37000000000018T972.1966666666666 68.7200000000002Q968.1966666666666 66.7200000000002 965.4966666666667 63.27000000000021T962.7966666666666 54.62000000000023Q962.7966666666666 49.82000000000022 964.6966666666666 46.52000000000021T969.6966666666666 41.2200000000002T976.4466666666666 38.32000000000022T983.5966666666666 37.42000000000024Q985.9966666666666 37.42000000000024 988.5966666666666 37.82000000000022T993.5966666666666 39.2200000000002L1006.8966666666665 31.02000000000021Q1007.6966666666666 31.420000000000186 1008.3966666666665 32.82000000000022T1009.4966666666667 35.77000000000021T1009.6966666666666 38.32000000000022Q1006.9966666666667 39.2200000000002 1003.6966666666666 39.9700000000002T996.9966666666667 40.920000000000186Q1000.1966666666666 42.820000000000164 1002.2966666666666 46.2200000000002T1004.3966666666666 54.620000000000175Q1004.3966666666666 59.02000000000015 1002.4466666666667 62.170000000000186T997.2966666666666 67.32000000000016T990.4966666666667 70.27000000000015T983.5966666666667 71.22000000000014M983.5966666666667 67.42000000000013Q988.6966666666667 67.42000000000013 991.9966666666667 63.77000000000015T995.2966666666666 54.42000000000013Q995.2966666666666 48.22000000000014 991.9966666666667 44.72000000000014T983.5966666666667 41.22000000000014T975.1966666666667 44.72000000000014T971.8966666666668 54.42000000000013Q971.8966666666668 60.12000000000012 975.1966666666667 63.77000000000015T983.5966666666667 67.42000000000013M985.0966666666667 87.22000000000014Q983.2966666666666 86.92000000000013 980.5466666666666 86.62000000000012T974.9966666666667 85.62000000000012Q972.5966666666667 87.62000000000012 971.3466666666667 89.87000000000012T970.0966666666667 95.92000000000013Q970.0966666666667 100.12000000000012 973.6966666666667 103.42000000000013T984.0966666666667 106.72000000000014Q988.9966666666667 106.72000000000014 992.4966666666667 105.12000000000012T997.8466666666667 101.0200000000001T999.6966666666667 96.0200000000001Q999.6966666666667 93.0200000000001 997.6466666666668 91.3200000000001T992.2466666666667 88.67000000000013T985.0966666666668 87.22000000000014M1028.5966666666668 13.42000000000013V43.42000000000013H1029.0966666666668Q1033.5966666666668 39.32000000000011 1037.8466666666668 37.62000000000012T1045.4966666666667 35.92000000000013Q1053.6966666666667 35.92000000000013 1057.4466666666667 40.22000000000014T1061.1966666666667 51.52000000000015V82.92000000000013L1068.3966666666668 84.92000000000013Q1068.6966666666667 86.8200000000001 1067.8966666666668 88.42000000000013Q1065.1966666666667 88.22000000000014 1062.0966666666668 88.0700000000001T1056.1966666666667 87.92000000000013T1050.0966666666668 88.0700000000001T1043.9966666666667 88.42000000000013Q1043.6966666666667 86.52000000000015 1044.1966666666667 84.92000000000013Q1045.9966666666667 84.52000000000015 1047.7966666666666 84.0700000000001T1051.1966666666667 82.92000000000013V53.02000000000015Q1051.1966666666667 48.820000000000164 1049.8966666666665 46.620000000000175T1046.3966666666665 43.670000000000186T1041.4966666666667 42.920000000000186Q1038.2966666666666 42.920000000000186 1034.8466666666668 44.52000000000021T1029.0966666666668 48.7200000000002V82.92000000000019L1035.7966666666666 84.92000000000019Q1036.0966666666668 86.82000000000016 1035.2966666666666 88.42000000000019Q1032.5966666666668 88.2200000000002 1029.7466666666667 88.07000000000016T1024.0966666666668 87.92000000000019T1017.9966666666667 88.07000000000016T1011.8966666666666 88.42000000000019Q1011.5966666666666 86.52000000000021 1012.0966666666666 84.92000000000019Q1013.9966666666667 84.42000000000019 1015.8466666666666 84.02000000000021T1019.0966666666666 82.92000000000019V19.320000000000164L1010.7966666666666 18.520000000000152Q1010.4966666666667 16.520000000000152 1011.2966666666666 15.020000000000152Q1018.4966666666667 13.92000000000013 1024.7966666666666 12.320000000000164Q1025.7966666666666 12.420000000000186 1026.6966666666667 12.670000000000186T1028.5966666666666 13.420000000000186M1090.2966666666666 89.52000000000021Q1087.0966666666666 89.52000000000021 1084.4966666666664 88.32000000000022T1080.4466666666665 84.17000000000024T1078.9966666666664 76.02000000000027V44.12000000000029H1071.9966666666664Q1071.3966666666665 43.020000000000266 1071.3466666666666 41.87000000000029T1071.4966666666664 39.62000000000029Q1075.6966666666665 39.62000000000029 1077.7966666666666 38.520000000000266T1081.0466666666666 34.720000000000255T1083.4966666666664 27.420000000000243H1088.7966666666666V38.62000000000023H1099.2966666666666Q1100.6966666666665 41.52000000000021 1099.2966666666666 44.12000000000023H1088.7966666666666V73.52000000000021Q1088.7966666666666 78.12000000000023 1089.2466666666664 80.4700000000002T1090.7966666666666 83.67000000000019T1093.7966666666666 84.52000000000021Q1095.3966666666665 84.52000000000021 1096.8966666666665 83.92000000000019T1099.7966666666666 82.52000000000021Q1101.1966666666665 83.42000000000019 1101.2966666666666 85.52000000000021Q1100.1966666666665 86.82000000000022 1097.2966666666666 88.17000000000019T1090.2966666666666 89.52000000000021M1134.8966666666665 25.920000000000186L1133.7966666666666 17.120000000000175Q1131.8966666666665 16.320000000000164 1129.8966666666665 16.320000000000164Q1125.8966666666665 16.320000000000164 1123.9966666666667 20.47000000000014T1122.0966666666666 31.92000000000013V40.42000000000013H1136.0966666666666Q1136.0966666666666 41.62000000000012 1135.8466666666666 43.12000000000012T1135.0966666666666 45.42000000000013H1122.0966666666666V82.92000000000013L1131.7966666666666 84.92000000000013Q1132.0966666666666 86.8200000000001 1131.2966666666666 88.42000000000013Q1129.4966666666667 88.3200000000001 1126.8466666666666 88.22000000000014L1121.5966666666666 88.02000000000015Q1118.9966666666667 87.92000000000013 1117.0966666666666 87.92000000000013Q1114.2966666666666 87.92000000000013 1110.9966666666667 88.0700000000001T1104.8966666666665 88.42000000000013Q1104.5966666666666 86.52000000000015 1105.0966666666666 84.92000000000013Q1106.8966666666665 84.52000000000015 1108.6966666666667 84.0700000000001T1112.0966666666666 82.92000000000013V45.42000000000013H1105.5966666666666Q1105.4966666666664 44.42000000000013 1105.8466666666666 42.67000000000013T1106.5966666666666 40.42000000000013H1112.0966666666666V34.42000000000013Q1112.0966666666666 24.22000000000014 1116.7966666666666 18.320000000000107T1129.0966666666666 12.42000000000013Q1133.0966666666666 12.42000000000013 1135.6466666666665 13.070000000000107T1140.8966666666665 15.42000000000013Q1140.5966666666668 18.22000000000014 1140.1466666666665 20.97000000000014T1138.9966666666667 26.320000000000164Q1138.2966666666666 26.420000000000186 1136.9966666666667 26.370000000000175T1134.8966666666665 25.920000000000186 "></path><path fill="#fff" d="M1156.3966666666665 13.420000000000016V82.92000000000002L1164.0966666666666 84.92000000000002Q1164.3966666666665 86.82 1163.5966666666666 88.42000000000002Q1160.8966666666665 88.22000000000003 1157.5466666666666 88.07T1151.3966666666665 87.92000000000002T1145.2966666666666 88.07T1139.1966666666667 88.42000000000002Q1138.8966666666665 86.52000000000004 1139.3966666666665 84.92000000000002Q1141.2966666666666 84.42000000000002 1143.1466666666665 84.02000000000004T1146.3966666666665 82.92000000000002V19.319999999999993L1138.0966666666666 18.519999999999982Q1137.7966666666666 16.519999999999982 1138.5966666666666 15.019999999999982Q1142.1966666666667 14.519999999999982 1145.8466666666666 13.819999999999993T1152.5966666666666 12.319999999999993Q1153.5966666666666 12.420000000000016 1154.4966666666664 12.670000000000016T1156.3966666666665 13.420000000000016M1168.9966666666664 62.920000000000016Q1168.9966666666664 55.120000000000005 1172.0466666666666 49.02000000000004T1180.7966666666666 39.420000000000016T1194.1966666666665 35.920000000000016Q1201.9966666666664 35.920000000000016 1207.6466666666665 39.420000000000016T1216.3466666666666 49.02000000000004T1219.3966666666665 62.920000000000016Q1219.3966666666665 70.92000000000002 1216.3466666666666 77.02000000000004T1207.6466666666665 86.52000000000004T1194.1966666666665 89.92000000000002Q1186.4966666666664 89.92000000000002 1180.7966666666666 86.52000000000004T1172.0466666666666 77.02000000000004T1168.9966666666664 62.920000000000016M1208.5966666666666 64.32Q1208.5966666666666 57.620000000000005 1207.0966666666666 52.170000000000016T1202.3966666666665 43.47000000000003T1193.9966666666664 40.22000000000003Q1188.6966666666667 40.22000000000003 1185.5466666666666 43.420000000000016T1181.0966666666664 51.920000000000016T1179.7966666666666 63.620000000000005Q1179.7966666666666 69.42000000000002 1181.2966666666666 74.47000000000003T1186.0466666666666 82.57000000000005T1194.3966666666665 85.62000000000006Q1199.7966666666666 85.62000000000006 1202.8966666666665 82.62000000000006T1207.2966666666666 74.72000000000008T1208.5966666666664 64.3200000000001M1278.3966666666665 90.72000000000008L1265.7966666666664 54.62000000000006L1253.3966666666665 89.32000000000005Q1252.6966666666663 89.72000000000003 1251.1466666666665 90.17000000000007T1248.6966666666663 90.62000000000006L1230.2966666666664 42.92000000000007L1222.5966666666664 40.92000000000007Q1222.2966666666664 39.020000000000095 1223.0966666666664 37.42000000000007Q1225.7966666666664 37.520000000000095 1229.1466666666663 37.720000000000084T1235.2966666666662 37.92000000000007Q1238.1966666666663 37.92000000000007 1241.6466666666663 37.720000000000084T1247.8966666666663 37.42000000000007Q1248.1966666666663 39.32000000000005 1247.6966666666663 40.92000000000007Q1245.8966666666663 41.32000000000005 1244.0466666666662 41.770000000000095T1240.7966666666662 42.92000000000007L1248.1966666666663 63.82000000000005Q1249.3966666666663 67.22000000000003 1250.4966666666662 70.92000000000007T1252.396666666666 78.0200000000001H1252.6966666666663Q1253.5966666666661 74.5200000000001 1254.646666666666 70.92000000000007T1256.7966666666662 64.22000000000008L1263.1966666666663 47.12000000000006L1261.7966666666662 42.92000000000007L1254.0966666666661 40.92000000000007Q1253.7966666666662 39.020000000000095 1254.5966666666661 37.42000000000007Q1257.2966666666662 37.520000000000095 1260.496666666666 37.720000000000084T1266.496666666666 37.92000000000007Q1269.396666666666 37.92000000000007 1272.2966666666662 37.720000000000084T1277.996666666666 37.42000000000007Q1278.2966666666662 39.32000000000005 1277.7966666666662 40.92000000000007Q1275.996666666666 41.32000000000005 1274.096666666666 41.720000000000084T1270.896666666666 42.92000000000007L1277.596666666666 64.72000000000008Q1278.696666666666 68.42000000000007 1279.7966666666662 71.92000000000007T1281.7966666666662 79.0200000000001H1282.096666666666Q1282.896666666666 75.62000000000012 1283.896666666666 72.2700000000001T1285.996666666666 65.5200000000001L1293.096666666666 42.92000000000007L1285.396666666666 40.92000000000007Q1285.096666666666 39.020000000000095 1285.896666666666 37.42000000000007Q1288.596666666666 37.520000000000095 1290.846666666666 37.720000000000084T1295.896666666666 37.92000000000007Q1298.796666666666 37.92000000000007 1301.246666666666 37.720000000000084T1306.496666666666 37.42000000000007Q1306.796666666666 39.32000000000005 1306.296666666666 40.92000000000007Q1304.396666666666 41.32000000000005 1302.546666666666 41.720000000000084T1299.1966666666658 42.92000000000007L1283.1966666666658 89.32000000000005Q1282.496666666666 89.72000000000003 1280.896666666666 90.22000000000003T1278.396666666666 90.72000000000003 "></path></g><rect width="560" height="113" x="720" y="0" id="space-saver" fill="transparent" stroke="transparent"></rect></g></svg>